<svg width="42" height="43" viewBox="0 0 42 43" fill="none" xmlns="http://www.w3.org/2000/svg">
<path d="M10.4167 34.21H14.5833V30.0434H18.75V25.8767H14.5833V21.71H10.4167V25.8767H6.25V30.0434H10.4167V34.21ZM22.9167 26.9184H35.4167V23.7934H22.9167V26.9184ZM22.9167 33.1684H31.25V30.0434H22.9167V33.1684ZM4.16667 42.5434C3.02084 42.5434 2.03959 42.135 1.22292 41.3184C0.406253 40.5017 -0.00138535 39.5212 3.53707e-06 38.3767V15.46C3.53707e-06 14.3142 0.408337 13.333 1.225 12.5163C2.04167 11.6996 3.02223 11.292 4.16667 11.2934H14.5833V5.04338C14.5833 3.89755 14.9917 2.9163 15.8083 2.09963C16.625 1.28296 17.6056 0.875324 18.75 0.876713H22.9167C24.0625 0.876713 25.0438 1.28505 25.8604 2.10171C26.6771 2.91838 27.0847 3.89893 27.0833 5.04338V11.2934H37.5C38.6458 11.2934 39.6271 11.7017 40.4438 12.5184C41.2604 13.335 41.6681 14.3156 41.6667 15.46V38.3767C41.6667 39.5225 41.2583 40.5038 40.4417 41.3205C39.625 42.1371 38.6444 42.5448 37.5 42.5434H4.16667ZM4.16667 38.3767H37.5V15.46H27.0833C27.0833 16.6059 26.675 17.5871 25.8583 18.4038C25.0417 19.2205 24.0611 19.6281 22.9167 19.6267H18.75C17.6042 19.6267 16.6229 19.2184 15.8063 18.4017C14.9896 17.585 14.5819 16.6045 14.5833 15.46H4.16667V38.3767ZM18.75 15.46H22.9167V5.04338H18.75V15.46Z" fill="#000091"/>
</svg>
