<svg width="42" height="42" viewBox="0 0 42 42" fill="none" xmlns="http://www.w3.org/2000/svg">
<path d="M10.6066 33.3333H14.7733V29.1667H18.9399V25H14.7733V20.8333H10.6066V25H6.43994V29.1667H10.6066V33.3333ZM23.1066 26.0417H35.6066V22.9167H23.1066V26.0417ZM23.1066 32.2917H31.4399V29.1667H23.1066V32.2917ZM4.35661 41.6667C3.21078 41.6667 2.22953 41.2583 1.41286 40.4417C0.596195 39.625 0.188556 38.6444 0.189945 37.5V14.5833C0.189945 13.4375 0.598278 12.4563 1.41495 11.6396C2.23161 10.8229 3.21217 10.4153 4.35661 10.4167H14.7733V4.16667C14.7733 3.02084 15.1816 2.03959 15.9983 1.22292C16.8149 0.406253 17.7955 -0.00138535 18.9399 3.53707e-06H23.1066C24.2524 3.53707e-06 25.2337 0.408337 26.0504 1.225C26.867 2.04167 27.2747 3.02223 27.2733 4.16667V10.4167H37.6899C38.8358 10.4167 39.817 10.825 40.6337 11.6417C41.4504 12.4583 41.858 13.4389 41.8566 14.5833V37.5C41.8566 38.6458 41.4483 39.6271 40.6316 40.4438C39.8149 41.2604 38.8344 41.6681 37.6899 41.6667H4.35661ZM4.35661 37.5H37.6899V14.5833H27.2733C27.2733 15.7292 26.8649 16.7104 26.0483 17.5271C25.2316 18.3438 24.2511 18.7514 23.1066 18.75H18.9399C17.7941 18.75 16.8129 18.3417 15.9962 17.525C15.1795 16.7083 14.7719 15.7278 14.7733 14.5833H4.35661V37.5ZM18.9399 14.5833H23.1066V4.16667H18.9399V14.5833Z" fill="black"/>
</svg>
