<svg width="36" height="35" viewBox="0 0 36 35" fill="none" xmlns="http://www.w3.org/2000/svg">
<path d="M14.9192 0H2.41919C2.00479 0 1.60736 0.16462 1.31434 0.457646C1.02131 0.750672 0.856689 1.1481 0.856689 1.5625V14.0625C0.856689 14.4769 1.02131 14.8743 1.31434 15.1674C1.60736 15.4604 2.00479 15.625 2.41919 15.625H14.9192C15.3336 15.625 15.731 15.4604 16.024 15.1674C16.3171 14.8743 16.4817 14.4769 16.4817 14.0625V1.5625C16.4817 1.1481 16.3171 0.750672 16.024 0.457646C15.731 0.16462 15.3336 0 14.9192 0ZM13.3567 12.5H3.98169V3.125H13.3567V12.5ZM33.6692 0H21.1692C20.7548 0 20.3574 0.16462 20.0643 0.457646C19.7713 0.750672 19.6067 1.1481 19.6067 1.5625V14.0625C19.6067 14.4769 19.7713 14.8743 20.0643 15.1674C20.3574 15.4604 20.7548 15.625 21.1692 15.625H33.6692C34.0836 15.625 34.481 15.4604 34.774 15.1674C35.0671 14.8743 35.2317 14.4769 35.2317 14.0625V1.5625C35.2317 1.1481 35.0671 0.750672 34.774 0.457646C34.481 0.16462 34.0836 0 33.6692 0ZM32.1067 12.5H22.7317V3.125H32.1067V12.5ZM14.9192 18.75H2.41919C2.00479 18.75 1.60736 18.9146 1.31434 19.2076C1.02131 19.5007 0.856689 19.8981 0.856689 20.3125V32.8125C0.856689 33.2269 1.02131 33.6243 1.31434 33.9174C1.60736 34.2104 2.00479 34.375 2.41919 34.375H14.9192C15.3336 34.375 15.731 34.2104 16.024 33.9174C16.3171 33.6243 16.4817 33.2269 16.4817 32.8125V20.3125C16.4817 19.8981 16.3171 19.5007 16.024 19.2076C15.731 18.9146 15.3336 18.75 14.9192 18.75ZM13.3567 31.25H3.98169V21.875H13.3567V31.25ZM33.6692 18.75H21.1692C20.7548 18.75 20.3574 18.9146 20.0643 19.2076C19.7713 19.5007 19.6067 19.8981 19.6067 20.3125V32.8125C19.6067 33.2269 19.7713 33.6243 20.0643 33.9174C20.3574 34.2104 20.7548 34.375 21.1692 34.375H33.6692C34.0836 34.375 34.481 34.2104 34.774 33.9174C35.0671 33.6243 35.2317 33.2269 35.2317 32.8125V20.3125C35.2317 19.8981 35.0671 19.5007 34.774 19.2076C34.481 18.9146 34.0836 18.75 33.6692 18.75ZM32.1067 31.25H22.7317V21.875H32.1067V31.25Z" fill="black"/>
</svg>
