<svg width="35" height="35" viewBox="0 0 35 35" fill="none" xmlns="http://www.w3.org/2000/svg">
<path d="M14.0625 0.550537H1.5625C1.1481 0.550537 0.750672 0.715157 0.457646 1.00818C0.16462 1.30121 0 1.69864 0 2.11304V14.613C0 15.0274 0.16462 15.4249 0.457646 15.7179C0.750672 16.0109 1.1481 16.1755 1.5625 16.1755H14.0625C14.4769 16.1755 14.8743 16.0109 15.1674 15.7179C15.4604 15.4249 15.625 15.0274 15.625 14.613V2.11304C15.625 1.69864 15.4604 1.30121 15.1674 1.00818C14.8743 0.715157 14.4769 0.550537 14.0625 0.550537ZM12.5 13.0505H3.125V3.67554H12.5V13.0505ZM32.8125 0.550537H20.3125C19.8981 0.550537 19.5007 0.715157 19.2076 1.00818C18.9146 1.30121 18.75 1.69864 18.75 2.11304V14.613C18.75 15.0274 18.9146 15.4249 19.2076 15.7179C19.5007 16.0109 19.8981 16.1755 20.3125 16.1755H32.8125C33.2269 16.1755 33.6243 16.0109 33.9174 15.7179C34.2104 15.4249 34.375 15.0274 34.375 14.613V2.11304C34.375 1.69864 34.2104 1.30121 33.9174 1.00818C33.6243 0.715157 33.2269 0.550537 32.8125 0.550537ZM31.25 13.0505H21.875V3.67554H31.25V13.0505ZM14.0625 19.3005H1.5625C1.1481 19.3005 0.750672 19.4652 0.457646 19.7582C0.16462 20.0512 0 20.4486 0 20.863V33.363C0 33.7774 0.16462 34.1749 0.457646 34.4679C0.750672 34.7609 1.1481 34.9255 1.5625 34.9255H14.0625C14.4769 34.9255 14.8743 34.7609 15.1674 34.4679C15.4604 34.1749 15.625 33.7774 15.625 33.363V20.863C15.625 20.4486 15.4604 20.0512 15.1674 19.7582C14.8743 19.4652 14.4769 19.3005 14.0625 19.3005ZM12.5 31.8005H3.125V22.4255H12.5V31.8005ZM32.8125 19.3005H20.3125C19.8981 19.3005 19.5007 19.4652 19.2076 19.7582C18.9146 20.0512 18.75 20.4486 18.75 20.863V33.363C18.75 33.7774 18.9146 34.1749 19.2076 34.4679C19.5007 34.7609 19.8981 34.9255 20.3125 34.9255H32.8125C33.2269 34.9255 33.6243 34.7609 33.9174 34.4679C34.2104 34.1749 34.375 33.7774 34.375 33.363V20.863C34.375 20.4486 34.2104 20.0512 33.9174 19.7582C33.6243 19.4652 33.2269 19.3005 32.8125 19.3005ZM31.25 31.8005H21.875V22.4255H31.25V31.8005Z" fill="#000091"/>
</svg>
