<svg width="10" height="10" viewBox="0 0 10 10" fill="none" xmlns="http://www.w3.org/2000/svg">
    <path d="M5.417 2.709a.417.417 0 1 1-.834 0 .417.417 0 0 1 .833 0zM4.167 4.27a.313.313 0 0 1 .312-.312h.625a.312.312 0 0 1 .313.312v1.771h.312a.313.313 0 0 1 0 .625h-1.25a.312.312 0 1 1 0-.625h.313V4.584h-.313a.313.313 0 0 1-.313-.313z" fill="#000"/>
    <path d="M5 0a4.583 4.583 0 1 1 0 9.167A4.583 4.583 0 0 1 5 0zM1.042 4.583a3.958 3.958 0 1 0 7.916 0 3.958 3.958 0 0 0-7.917 0z" fill="#000"/>
</svg>
