<svg width="15" height="18" viewBox="0 0 15 18" fill="none" xmlns="http://www.w3.org/2000/svg">
<path d="M3.625 6.25H2.75C2.28587 6.25 1.84075 6.43437 1.51256 6.76256C1.18437 7.09075 1 7.53587 1 8V15C1 15.4641 1.18437 15.9092 1.51256 16.2374C1.84075 16.5656 2.28587 16.75 2.75 16.75H11.5C11.9641 16.75 12.4092 16.5656 12.7374 16.2374C13.0656 15.9092 13.25 15.4641 13.25 15V8C13.25 7.53587 13.0656 7.09075 12.7374 6.76256C12.4092 6.43437 11.9641 6.25 11.5 6.25H10.625M7.125 10.625V1M7.125 1L4.5 3.625M7.125 1L9.75 3.625" stroke="#000091" stroke-width="2" stroke-linecap="round" stroke-linejoin="round"/>
</svg>
